<?xml version="1.0" encoding="UTF-8"?>
<svg xmlns="http://www.w3.org/2000/svg" xmlns:xlink="http://www.w3.org/1999/xlink" width="52pt" height="52pt" viewBox="0 0 52 52" version="1.1">
<g id="surface8800573">
<path style=" stroke:none;fill-rule:nonzero;fill:rgb(100%,34.117647%,20%);fill-opacity:1;" d="M 28.8125 0 C 31.554688 6.617188 18.921875 10.671875 17.75 16.1875 C 16.679688 21.25 25.242188 27.1875 25.25 27.1875 C 23.953125 25.09375 22.992188 23.328125 21.6875 20.0625 C 19.484375 14.546875 35.148438 9.570312 28.8125 0 Z M 37.125 9.1875 C 37.125 9.1875 26.125 9.898438 25.5625 17.25 C 25.3125 20.523438 28.46875 22.242188 28.5625 24.625 C 28.632812 26.570312 26.625 28.1875 26.625 28.1875 C 26.625 28.1875 30.203125 27.53125 31.3125 24.5625 C 32.539062 21.265625 28.945312 19.015625 29.3125 16.375 C 29.664062 13.851562 37.125 9.1875 37.125 9.1875 Z M 39.8125 26.125 C 38.65625 26.070312 37.351562 26.507812 36.1875 27.375 C 38.46875 26.859375 40.4375 28.320312 40.4375 30 C 40.4375 33.765625 35.1875 37.3125 35.1875 37.3125 C 35.1875 37.3125 43.3125 36.382812 43.3125 30.1875 C 43.3125 27.632812 41.734375 26.21875 39.8125 26.125 Z M 18.1875 26.1875 C 15.34375 26.289062 9.6875 26.765625 9.6875 29 C 9.6875 32.109375 22.921875 32.351562 32.375 30.4375 C 32.375 30.4375 34.890625 28.609375 35.5625 27.9375 C 29.367188 29.25 15.25 29.453125 15.25 28.3125 C 15.25 27.265625 19.8125 26.1875 19.8125 26.1875 C 19.8125 26.1875 19.132812 26.15625 18.1875 26.1875 Z M 17.375 31.9375 C 15.820312 31.9375 13.5 33.171875 13.5 34.375 C 13.5 36.796875 25.171875 38.65625 33.8125 35.125 L 30.8125 33.25 C 24.953125 35.203125 14.179688 34.554688 17.375 31.9375 Z M 18.8125 37.375 C 16.6875 37.375 15.3125 38.742188 15.3125 39.75 C 15.3125 42.851562 27.96875 43.15625 33 40 L 29.8125 37.875 C 26.054688 39.523438 16.640625 39.765625 18.8125 37.375 Z M 11.6875 40.1875 C 8.226562 40.117188 6 41.71875 6 43.0625 C 6 50.210938 41.5 49.867188 41.5 42.5625 C 41.5 41.351562 40.117188 40.773438 39.625 40.5 C 42.523438 47.484375 10.625 46.9375 10.625 42.8125 C 10.625 41.875 12.953125 40.9375 15.125 41.375 L 13.25 40.3125 C 12.710938 40.226562 12.179688 40.195312 11.6875 40.1875 Z M 45.1875 45 C 39.796875 50.320312 26.117188 52.226562 12.375 48.9375 C 26.117188 54.796875 45.125 51.539062 45.1875 45 Z M 45.1875 45 "/>
</g>
</svg>
