<?xml version="1.0" encoding="UTF-8"?>
<svg xmlns="http://www.w3.org/2000/svg" xmlns:xlink="http://www.w3.org/1999/xlink" width="50pt" height="50pt" viewBox="0 0 50 50" version="1.1">
<g id="surface8801349">
<path style=" stroke:none;fill-rule:nonzero;fill:rgb(100%,34.117647%,20%);fill-opacity:1;" d="M 33.28125 9.375 C 33.039062 9.375 32.8125 9.570312 32.8125 9.84375 L 32.8125 18.433594 L 30.867188 17.296875 C 30.742188 17.226562 30.605469 17.191406 30.46875 17.191406 C 30.332031 17.191406 30.195312 17.226562 30.070312 17.296875 L 25.394531 20.027344 C 25.148438 20.167969 25 20.425781 25 20.707031 L 25 26.167969 C 25 26.449219 25.148438 26.707031 25.394531 26.847656 L 30.070312 29.578125 C 30.195312 29.648438 30.332031 29.683594 30.46875 29.683594 C 30.605469 29.683594 30.742188 29.648438 30.867188 29.578125 L 35.542969 26.847656 C 35.789062 26.707031 35.9375 26.449219 35.9375 26.167969 L 35.9375 11.296875 C 35.9375 11.019531 35.789062 10.765625 35.550781 10.625 L 33.515625 9.4375 C 33.4375 9.394531 33.359375 9.375 33.28125 9.375 Z M 17.96875 17.191406 C 17.832031 17.191406 17.695312 17.226562 17.570312 17.296875 L 12.894531 20.027344 C 12.648438 20.167969 12.5 20.425781 12.5 20.707031 L 12.5 26.167969 C 12.5 26.449219 12.648438 26.707031 12.894531 26.847656 L 17.570312 29.578125 C 17.816406 29.71875 18.121094 29.71875 18.367188 29.578125 L 23.042969 26.847656 C 23.289062 26.707031 23.4375 26.449219 23.4375 26.167969 L 23.4375 20.707031 C 23.4375 20.425781 23.289062 20.167969 23.042969 20.027344 L 18.367188 17.296875 C 18.242188 17.226562 18.105469 17.191406 17.96875 17.191406 Z M 42.96875 17.191406 C 42.832031 17.191406 42.695312 17.226562 42.570312 17.296875 L 37.894531 20.027344 C 37.648438 20.167969 37.5 20.425781 37.5 20.707031 L 37.5 26.167969 C 37.5 26.449219 37.648438 26.707031 37.894531 26.847656 L 42.433594 29.59375 C 42.675781 29.742188 42.980469 29.742188 43.226562 29.597656 L 45.460938 28.300781 C 45.691406 28.167969 45.691406 27.832031 45.460938 27.699219 L 40.625 24.851562 L 40.625 22.046875 L 42.96875 20.683594 L 45.3125 22.046875 L 45.3125 24 C 45.3125 24.261719 45.53125 24.300781 45.679688 24.210938 C 46.269531 23.867188 48.050781 22.832031 48.050781 22.832031 C 48.289062 22.695312 48.4375 22.4375 48.4375 22.160156 L 48.4375 20.707031 C 48.4375 20.425781 48.289062 20.167969 48.042969 20.027344 L 43.367188 17.296875 C 43.242188 17.226562 43.105469 17.191406 42.96875 17.191406 Z M 5.46875 17.195312 C 5.332031 17.195312 5.195312 17.230469 5.070312 17.300781 L 0.394531 20.027344 C 0.148438 20.167969 0 20.429688 0 20.710938 L 0 27.683594 C 0 28.023438 0.367188 28.234375 0.664062 28.0625 L 2.738281 26.855469 C 2.976562 26.714844 3.125 26.460938 3.125 26.179688 L 3.125 22.050781 L 5.46875 20.683594 L 7.8125 22.050781 L 7.8125 26.179688 C 7.8125 26.460938 7.960938 26.714844 8.199219 26.855469 L 10.273438 28.0625 C 10.570312 28.234375 10.9375 28.023438 10.9375 27.683594 L 10.9375 20.710938 C 10.9375 20.429688 10.789062 20.167969 10.542969 20.027344 L 5.867188 17.300781 C 5.742188 17.230469 5.605469 17.195312 5.46875 17.195312 Z M 30.46875 20.683594 L 32.8125 22.050781 L 32.8125 24.824219 L 30.46875 26.191406 L 28.125 24.824219 L 28.125 22.050781 Z M 42.96875 21.882812 L 41.628906 22.664062 L 41.628906 24.222656 L 42.96875 25 L 44.308594 24.222656 L 44.308594 22.664062 Z M 24.070312 28.121094 C 23.910156 28.121094 23.75 28.160156 23.609375 28.242188 L 19.214844 30.78125 C 18.925781 30.9375 18.75 31.253906 18.75 31.578125 L 18.75 36.652344 C 18.75 36.976562 18.933594 37.285156 19.214844 37.449219 L 20.371094 38.109375 C 20.925781 38.382812 21.128906 38.386719 21.378906 38.386719 C 22.207031 38.386719 22.679688 37.890625 22.679688 37.015625 L 22.679688 32.003906 C 22.679688 31.925781 22.621094 31.871094 22.550781 31.871094 L 21.996094 31.871094 C 21.921875 31.871094 21.867188 31.933594 21.867188 32.003906 L 21.867188 37.015625 C 21.867188 37.394531 21.464844 37.785156 20.808594 37.457031 L 19.609375 36.765625 C 19.570312 36.742188 19.539062 36.695312 19.539062 36.648438 L 19.539062 31.578125 C 19.539062 31.53125 19.5625 31.476562 19.609375 31.453125 L 24.003906 28.921875 C 24.050781 28.898438 24.101562 28.898438 24.140625 28.921875 L 28.535156 31.453125 C 28.582031 31.476562 28.605469 31.523438 28.605469 31.578125 L 28.605469 36.648438 C 28.605469 36.703125 28.574219 36.746094 28.535156 36.769531 L 24.140625 39.3125 C 24.101562 39.335938 24.039062 39.335938 24.003906 39.3125 L 22.878906 38.644531 C 22.847656 38.628906 22.800781 38.621094 22.773438 38.636719 C 22.460938 38.816406 22.398438 38.84375 22.109375 38.941406 C 22.035156 38.964844 21.929688 39.011719 22.148438 39.132812 L 23.609375 40 C 23.753906 40.074219 23.914062 40.121094 24.070312 40.121094 C 24.238281 40.121094 24.402344 40.074219 24.53125 39.992188 L 28.925781 37.449219 C 29.214844 37.292969 29.386719 36.976562 29.386719 36.652344 L 29.386719 31.578125 C 29.386719 31.253906 29.207031 30.945312 28.925781 30.78125 L 24.53125 28.242188 C 24.394531 28.160156 24.234375 28.121094 24.070312 28.121094 Z M 30.925781 30.460938 C 30.476562 30.460938 30.085938 30.824219 30.085938 31.304688 C 30.085938 31.769531 30.460938 32.148438 30.925781 32.148438 C 31.390625 32.148438 31.769531 31.769531 31.769531 31.304688 C 31.769531 30.824219 31.382812 30.453125 30.925781 30.460938 Z M 30.917969 30.597656 C 31.3125 30.597656 31.632812 30.910156 31.632812 31.304688 C 31.632812 31.691406 31.3125 32.011719 30.917969 32.023438 C 30.527344 32.023438 30.210938 31.699219 30.210938 31.304688 C 30.210938 30.910156 30.53125 30.597656 30.917969 30.597656 Z M 30.609375 30.824219 L 30.609375 31.773438 L 30.789062 31.773438 L 30.789062 31.394531 L 30.957031 31.394531 C 31.027344 31.394531 31.042969 31.425781 31.058594 31.480469 C 31.058594 31.488281 31.085938 31.734375 31.09375 31.777344 L 31.289062 31.777344 C 31.269531 31.734375 31.25 31.601562 31.242188 31.523438 C 31.222656 31.402344 31.214844 31.320312 31.085938 31.3125 C 31.152344 31.289062 31.269531 31.25 31.269531 31.074219 C 31.269531 30.824219 31.050781 30.824219 30.9375 30.824219 Z M 30.789062 30.976562 L 30.941406 30.976562 C 30.988281 30.976562 31.078125 30.976562 31.078125 31.105469 C 31.078125 31.160156 31.054688 31.246094 30.933594 31.242188 L 30.789062 31.242188 Z M 25.25 31.753906 C 23.996094 31.753906 23.25 32.289062 23.25 33.167969 C 23.25 34.136719 23.996094 34.394531 25.199219 34.515625 C 26.636719 34.660156 26.75 34.867188 26.75 35.148438 C 26.75 35.640625 26.351562 35.847656 25.425781 35.847656 C 24.261719 35.847656 24.003906 35.558594 23.917969 34.980469 C 23.910156 34.917969 23.855469 34.871094 23.789062 34.871094 L 23.21875 34.871094 C 23.148438 34.871094 23.089844 34.925781 23.089844 35.003906 C 23.089844 35.742188 23.492188 36.625 25.414062 36.625 C 26.824219 36.621094 27.625 36.074219 27.625 35.117188 C 27.625 34.167969 26.984375 33.914062 25.632812 33.730469 C 24.261719 33.546875 24.128906 33.457031 24.128906 33.136719 C 24.128906 32.871094 24.238281 32.523438 25.25 32.523438 C 26.15625 32.523438 26.492188 32.71875 26.628906 33.328125 C 26.644531 33.390625 26.6875 33.425781 26.75 33.425781 L 27.320312 33.425781 C 27.355469 33.425781 27.390625 33.410156 27.410156 33.390625 C 27.433594 33.359375 27.449219 33.328125 27.441406 33.292969 C 27.351562 32.242188 26.65625 31.753906 25.25 31.753906 Z M 25.25 31.753906 "/>
</g>
</svg>
