<?xml version="1.0" encoding="UTF-8"?>
<svg xmlns="http://www.w3.org/2000/svg" xmlns:xlink="http://www.w3.org/1999/xlink" width="50pt" height="50pt" viewBox="0 0 50 50" version="1.1">
<g id="surface7735364">
<path style=" stroke:none;fill-rule:nonzero;fill:rgb(100%,33.333333%,20%);fill-opacity:1;" d="M 28.5 25 C 28.5 26.933594 26.933594 28.5 25 28.5 C 23.066406 28.5 21.5 26.933594 21.5 25 C 21.5 23.066406 23.066406 21.5 25 21.5 C 26.933594 21.5 28.5 23.066406 28.5 25 Z M 28.5 25 "/>
<path style=" stroke:none;fill-rule:nonzero;fill:rgb(12.156863%,12.941176%,16.862745%);fill-opacity:1;" d="M 25 29 C 22.792969 29 21 27.207031 21 25 C 21 22.792969 22.792969 21 25 21 C 27.207031 21 29 22.792969 29 25 C 29 27.207031 27.207031 29 25 29 Z M 25 22 C 23.34375 22 22 23.34375 22 25 C 22 26.65625 23.34375 28 25 28 C 26.65625 28 28 26.65625 28 25 C 28 23.34375 26.65625 22 25 22 Z M 25 22 "/>
<path style=" stroke:none;fill-rule:nonzero;fill:rgb(100%,33.333333%,20%);fill-opacity:1;" d="M 44.25 25 C 44.25 22.3125 41.011719 19.984375 35.992188 18.601562 C 37.28125 13.554688 36.882812 9.582031 34.578125 8.238281 C 33.667969 7.703125 32.5625 7.609375 31.296875 7.945312 C 29.386719 8.457031 27.199219 9.953125 25 12.148438 C 22.800781 9.953125 20.613281 8.457031 18.703125 7.945312 C 17.4375 7.609375 16.332031 7.703125 15.421875 8.238281 C 13.117188 9.582031 12.71875 13.550781 14.007812 18.601562 C 8.988281 19.984375 5.75 22.3125 5.75 25 C 5.75 27.6875 8.988281 30.015625 14.007812 31.398438 C 12.71875 36.449219 13.117188 40.417969 15.421875 41.765625 C 15.976562 42.089844 16.605469 42.253906 17.300781 42.25 C 17.742188 42.25 18.210938 42.183594 18.703125 42.054688 C 20.613281 41.542969 22.800781 40.046875 25 37.855469 C 27.199219 40.046875 29.386719 41.542969 31.296875 42.054688 C 31.789062 42.183594 32.257812 42.25 32.699219 42.25 C 33.394531 42.25 34.023438 42.089844 34.578125 41.765625 C 36.882812 40.417969 37.28125 36.449219 35.992188 31.398438 C 41.011719 30.015625 44.25 27.6875 44.25 25 Z M 31.683594 9.394531 C 32.046875 9.300781 32.382812 9.25 32.691406 9.25 C 33.121094 9.25 33.5 9.34375 33.820312 9.53125 C 35.367188 10.433594 35.683594 13.742188 34.53125 18.238281 C 32.945312 17.878906 31.214844 17.613281 29.375 17.445312 C 28.292969 15.890625 27.171875 14.472656 26.039062 13.230469 C 28.050781 11.21875 30.019531 9.839844 31.683594 9.394531 Z M 30.378906 28.148438 C 29.789062 29.183594 29.167969 30.171875 28.53125 31.117188 C 27.402344 31.203125 26.222656 31.25 25 31.25 C 23.777344 31.25 22.597656 31.203125 21.46875 31.117188 C 20.832031 30.171875 20.210938 29.183594 19.621094 28.148438 C 19.011719 27.082031 18.464844 26.03125 17.976562 25 C 18.464844 23.972656 19.011719 22.917969 19.621094 21.851562 C 20.214844 20.816406 20.832031 19.828125 21.46875 18.882812 C 22.597656 18.796875 23.777344 18.75 25 18.75 C 26.222656 18.75 27.402344 18.796875 28.53125 18.882812 C 29.167969 19.828125 29.789062 20.816406 30.378906 21.851562 C 30.988281 22.917969 31.535156 23.972656 32.023438 25 C 31.535156 26.03125 30.988281 27.082031 30.378906 28.148438 Z M 32.820312 26.773438 C 33.34375 28.003906 33.773438 29.1875 34.121094 30.3125 C 32.984375 30.566406 31.753906 30.777344 30.445312 30.933594 C 30.863281 30.273438 31.28125 29.59375 31.679688 28.890625 C 32.085938 28.183594 32.464844 27.476562 32.820312 26.773438 Z M 25 35.679688 C 24.183594 34.773438 23.367188 33.773438 22.566406 32.6875 C 23.363281 32.726562 24.175781 32.75 25 32.75 C 25.824219 32.75 26.636719 32.726562 27.433594 32.6875 C 26.632812 33.773438 25.816406 34.773438 25 35.679688 Z M 19.554688 30.933594 C 18.246094 30.777344 17.015625 30.566406 15.878906 30.3125 C 16.226562 29.1875 16.65625 28.003906 17.175781 26.773438 C 17.535156 27.476562 17.914062 28.183594 18.320312 28.890625 C 18.71875 29.59375 19.136719 30.273438 19.554688 30.933594 Z M 17.179688 23.226562 C 16.65625 21.996094 16.226562 20.8125 15.878906 19.6875 C 17.015625 19.433594 18.246094 19.222656 19.558594 19.066406 C 19.136719 19.726562 18.722656 20.40625 18.320312 21.109375 C 17.914062 21.816406 17.535156 22.523438 17.179688 23.226562 Z M 25 14.320312 C 25.816406 15.226562 26.632812 16.226562 27.433594 17.3125 C 26.636719 17.273438 25.824219 17.25 25 17.25 C 24.175781 17.25 23.363281 17.273438 22.566406 17.3125 C 23.367188 16.226562 24.183594 15.226562 25 14.320312 Z M 31.679688 21.109375 C 31.28125 20.40625 30.863281 19.726562 30.445312 19.066406 C 31.753906 19.222656 32.984375 19.433594 34.121094 19.6875 C 33.773438 20.8125 33.34375 21.996094 32.824219 23.226562 C 32.464844 22.523438 32.085938 21.816406 31.679688 21.109375 Z M 16.179688 9.53125 C 16.5 9.34375 16.878906 9.25 17.308594 9.25 C 17.617188 9.25 17.953125 9.300781 18.316406 9.394531 C 19.980469 9.839844 21.949219 11.21875 23.960938 13.230469 C 22.828125 14.472656 21.707031 15.890625 20.625 17.445312 C 18.785156 17.609375 17.054688 17.878906 15.46875 18.238281 C 14.316406 13.742188 14.632812 10.433594 16.179688 9.53125 Z M 7.25 25 C 7.25 23.203125 9.949219 21.28125 14.417969 20.050781 C 14.902344 21.628906 15.539062 23.292969 16.320312 25 C 15.539062 26.707031 14.902344 28.371094 14.417969 29.949219 C 9.949219 28.71875 7.25 26.796875 7.25 25 Z M 18.316406 40.605469 C 17.449219 40.835938 16.730469 40.789062 16.179688 40.46875 C 14.632812 39.566406 14.316406 36.257812 15.46875 31.761719 C 17.054688 32.121094 18.785156 32.390625 20.625 32.554688 C 21.703125 34.113281 22.828125 35.527344 23.960938 36.769531 C 21.949219 38.78125 19.980469 40.160156 18.316406 40.605469 Z M 33.820312 40.46875 C 33.269531 40.789062 32.550781 40.835938 31.683594 40.605469 C 30.019531 40.160156 28.050781 38.78125 26.039062 36.769531 C 27.171875 35.527344 28.292969 34.109375 29.375 32.554688 C 31.214844 32.386719 32.945312 32.121094 34.53125 31.761719 C 35.683594 36.257812 35.367188 39.566406 33.820312 40.46875 Z M 35.582031 29.949219 C 35.097656 28.371094 34.460938 26.707031 33.679688 25 C 34.460938 23.292969 35.097656 21.628906 35.582031 20.050781 C 40.050781 21.28125 42.75 23.203125 42.75 25 C 42.75 26.796875 40.050781 28.71875 35.582031 29.949219 Z M 35.582031 29.949219 "/>
<path style=" stroke:none;fill-rule:nonzero;fill:rgb(12.156863%,12.941176%,16.862745%);fill-opacity:1;" d="M 17.296875 42.5 C 16.5625 42.5 15.890625 42.324219 15.296875 41.980469 C 12.980469 40.628906 12.40625 36.839844 13.707031 31.574219 C 8.488281 30.089844 5.5 27.699219 5.5 25 C 5.5 22.300781 8.488281 19.910156 13.707031 18.425781 C 12.40625 13.160156 12.980469 9.371094 15.296875 8.019531 C 16.265625 7.453125 17.433594 7.347656 18.769531 7.707031 C 20.628906 8.203125 22.777344 9.617188 25 11.796875 C 27.222656 9.617188 29.371094 8.203125 31.230469 7.707031 C 32.566406 7.347656 33.734375 7.453125 34.703125 8.019531 C 37.019531 9.371094 37.59375 13.160156 36.292969 18.425781 C 41.511719 19.910156 44.5 22.300781 44.5 25 C 44.5 27.699219 41.511719 30.089844 36.292969 31.574219 C 37.59375 36.839844 37.019531 40.625 34.703125 41.980469 C 33.738281 42.542969 32.558594 42.652344 31.230469 42.292969 C 29.371094 41.796875 27.222656 40.382812 25 38.207031 C 22.777344 40.382812 20.628906 41.796875 18.769531 42.292969 C 18.257812 42.429688 17.761719 42.5 17.300781 42.5 C 17.300781 42.5 17.296875 42.5 17.296875 42.5 Z M 17.300781 8 C 16.652344 8 16.066406 8.152344 15.546875 8.453125 C 13.4375 9.6875 12.953125 13.457031 14.25 18.539062 C 14.285156 18.671875 14.207031 18.804688 14.074219 18.84375 C 9.019531 20.234375 6 22.539062 6 25 C 6 27.460938 9.019531 29.765625 14.074219 31.15625 C 14.207031 31.195312 14.285156 31.328125 14.25 31.460938 C 12.953125 36.542969 13.4375 40.316406 15.546875 41.546875 C 16.0625 41.847656 16.652344 42 17.296875 42 C 17.296875 42 17.300781 42 17.300781 42 C 17.71875 42 18.167969 41.9375 18.640625 41.8125 C 20.460938 41.324219 22.601562 39.894531 24.824219 37.675781 C 24.921875 37.578125 25.078125 37.578125 25.175781 37.675781 C 27.398438 39.894531 29.539062 41.324219 31.359375 41.8125 C 32.558594 42.132812 33.601562 42.042969 34.453125 41.546875 C 36.5625 40.3125 37.046875 36.542969 35.75 31.460938 C 35.714844 31.328125 35.792969 31.195312 35.925781 31.15625 C 40.980469 29.765625 44 27.460938 44 25 C 44 22.539062 40.980469 20.234375 35.925781 18.84375 C 35.792969 18.804688 35.714844 18.671875 35.75 18.539062 C 37.046875 13.457031 36.5625 9.683594 34.449219 8.453125 C 33.601562 7.957031 32.5625 7.867188 31.359375 8.1875 C 29.535156 8.675781 27.398438 10.105469 25.175781 12.324219 C 25.078125 12.421875 24.921875 12.421875 24.824219 12.324219 C 22.601562 10.105469 20.460938 8.675781 18.636719 8.1875 C 18.167969 8.0625 17.722656 8 17.300781 8 Z M 32.691406 41 C 32.363281 41 32.003906 40.949219 31.621094 40.847656 C 29.953125 40.398438 27.964844 39.050781 25.863281 36.945312 C 25.769531 36.851562 25.765625 36.699219 25.855469 36.601562 C 26.988281 35.359375 28.101562 33.949219 29.167969 32.410156 C 29.210938 32.351562 29.277344 32.3125 29.351562 32.304688 C 31.15625 32.140625 32.882812 31.878906 34.476562 31.519531 C 34.605469 31.488281 34.738281 31.570312 34.773438 31.699219 C 35.941406 36.261719 35.625 39.703125 33.945312 40.683594 C 33.585938 40.894531 33.167969 41 32.691406 41 Z M 26.386719 36.761719 C 28.359375 38.707031 30.210938 39.949219 31.75 40.363281 C 32.546875 40.578125 33.203125 40.539062 33.695312 40.253906 C 35.121094 39.417969 35.375 36.214844 34.347656 32.058594 C 32.835938 32.390625 31.210938 32.636719 29.511719 32.792969 C 28.503906 34.238281 27.453125 35.570312 26.386719 36.761719 Z M 17.308594 41 C 16.832031 41 16.414062 40.894531 16.054688 40.683594 C 14.375 39.703125 14.058594 36.261719 15.226562 31.699219 C 15.261719 31.570312 15.394531 31.492188 15.523438 31.519531 C 17.117188 31.878906 18.84375 32.140625 20.648438 32.304688 C 20.722656 32.3125 20.789062 32.351562 20.832031 32.410156 C 21.898438 33.949219 23.011719 35.359375 24.144531 36.601562 C 24.234375 36.699219 24.230469 36.851562 24.136719 36.945312 C 22.035156 39.050781 20.046875 40.398438 18.378906 40.847656 C 17.996094 40.949219 17.636719 41 17.308594 41 Z M 15.652344 32.058594 C 14.625 36.214844 14.878906 39.417969 16.304688 40.253906 C 16.796875 40.539062 17.449219 40.578125 18.25 40.363281 C 19.789062 39.949219 21.640625 38.707031 23.613281 36.761719 C 22.546875 35.570312 21.496094 34.238281 20.488281 32.792969 C 18.789062 32.636719 17.164062 32.390625 15.652344 32.058594 Z M 25 35.929688 C 24.929688 35.929688 24.863281 35.898438 24.816406 35.84375 C 23.984375 34.925781 23.160156 33.914062 22.367188 32.835938 C 22.308594 32.757812 22.300781 32.65625 22.347656 32.570312 C 22.394531 32.484375 22.476562 32.433594 22.578125 32.4375 C 24.234375 32.519531 25.765625 32.519531 27.421875 32.4375 C 27.519531 32.433594 27.605469 32.484375 27.652344 32.570312 C 27.699219 32.65625 27.691406 32.757812 27.632812 32.835938 C 26.839844 33.914062 26.015625 34.925781 25.183594 35.84375 C 25.136719 35.898438 25.070312 35.929688 25 35.929688 Z M 23.082031 32.960938 C 23.710938 33.789062 24.351562 34.574219 25 35.304688 C 25.648438 34.574219 26.289062 33.789062 26.917969 32.960938 C 25.609375 33.011719 24.390625 33.011719 23.082031 32.960938 Z M 25 31.5 C 23.816406 31.5 22.621094 31.457031 21.449219 31.367188 C 21.375 31.363281 21.304688 31.324219 21.261719 31.257812 C 20.59375 30.265625 19.96875 29.257812 19.40625 28.273438 C 18.816406 27.238281 18.257812 26.175781 17.75 25.109375 C 17.71875 25.039062 17.71875 24.960938 17.75 24.890625 C 18.257812 23.824219 18.816406 22.761719 19.40625 21.726562 C 19.96875 20.742188 20.59375 19.738281 21.261719 18.742188 C 21.304688 18.675781 21.375 18.636719 21.449219 18.632812 C 23.792969 18.457031 26.207031 18.457031 28.550781 18.632812 C 28.625 18.636719 28.695312 18.675781 28.738281 18.742188 C 29.40625 19.738281 30.03125 20.742188 30.59375 21.726562 C 31.183594 22.761719 31.742188 23.824219 32.25 24.890625 C 32.28125 24.960938 32.28125 25.039062 32.25 25.109375 C 31.742188 26.175781 31.183594 27.238281 30.59375 28.273438 C 30.03125 29.257812 29.40625 30.265625 28.738281 31.257812 C 28.695312 31.320312 28.625 31.363281 28.550781 31.367188 C 27.378906 31.457031 26.183594 31.5 25 31.5 Z M 21.609375 30.878906 C 23.847656 31.039062 26.152344 31.039062 28.390625 30.878906 C 29.027344 29.925781 29.621094 28.96875 30.160156 28.023438 C 30.722656 27.035156 31.257812 26.019531 31.746094 25 C 31.257812 23.980469 30.722656 22.964844 30.160156 21.976562 C 29.621094 21.035156 29.027344 20.074219 28.390625 19.121094 C 26.152344 18.960938 23.847656 18.960938 21.609375 19.121094 C 20.972656 20.074219 20.375 21.035156 19.839844 21.976562 C 19.273438 22.964844 18.742188 23.980469 18.253906 25 C 18.742188 26.019531 19.273438 27.035156 19.839844 28.023438 C 20.378906 28.96875 20.972656 29.925781 21.609375 30.878906 Z M 30.445312 31.183594 C 30.359375 31.183594 30.277344 31.140625 30.234375 31.070312 C 30.179688 30.988281 30.179688 30.882812 30.234375 30.800781 C 30.695312 30.070312 31.097656 29.40625 31.464844 28.769531 C 31.84375 28.101562 32.226562 27.390625 32.597656 26.660156 C 32.644531 26.574219 32.734375 26.523438 32.832031 26.523438 C 32.929688 26.527344 33.015625 26.585938 33.050781 26.675781 C 33.558594 27.875 34 29.074219 34.359375 30.242188 C 34.378906 30.308594 34.371094 30.378906 34.335938 30.441406 C 34.300781 30.5 34.242188 30.542969 34.175781 30.558594 C 33 30.820312 31.753906 31.03125 30.472656 31.183594 C 30.464844 31.183594 30.453125 31.183594 30.445312 31.183594 Z M 32.796875 27.367188 C 32.5 27.933594 32.199219 28.488281 31.898438 29.015625 C 31.605469 29.527344 31.289062 30.054688 30.9375 30.621094 C 31.921875 30.488281 32.882812 30.324219 33.800781 30.128906 C 33.511719 29.21875 33.175781 28.296875 32.796875 27.367188 Z M 19.554688 31.183594 C 19.546875 31.183594 19.535156 31.183594 19.527344 31.183594 C 18.246094 31.03125 17 30.820312 15.824219 30.558594 C 15.757812 30.542969 15.699219 30.5 15.664062 30.4375 C 15.628906 30.378906 15.621094 30.304688 15.640625 30.238281 C 16 29.074219 16.441406 27.875 16.949219 26.675781 C 16.984375 26.585938 17.070312 26.527344 17.167969 26.523438 C 17.261719 26.511719 17.355469 26.574219 17.402344 26.660156 C 17.773438 27.390625 18.15625 28.097656 18.535156 28.769531 C 18.902344 29.40625 19.304688 30.070312 19.765625 30.800781 C 19.820312 30.882812 19.820312 30.988281 19.765625 31.070312 C 19.722656 31.140625 19.640625 31.183594 19.554688 31.183594 Z M 16.199219 30.128906 C 17.117188 30.324219 18.078125 30.488281 19.0625 30.621094 C 18.710938 30.054688 18.394531 29.527344 18.101562 29.015625 C 17.800781 28.488281 17.5 27.933594 17.203125 27.367188 C 16.824219 28.296875 16.488281 29.21875 16.199219 30.128906 Z M 35.582031 30.199219 C 35.476562 30.199219 35.375 30.132812 35.34375 30.023438 C 34.855469 28.433594 34.21875 26.777344 33.453125 25.105469 C 33.421875 25.039062 33.421875 24.960938 33.453125 24.894531 C 34.21875 23.222656 34.855469 21.566406 35.34375 19.976562 C 35.382812 19.847656 35.519531 19.773438 35.648438 19.808594 C 40.183594 21.058594 43 23.046875 43 25 C 43 26.953125 40.183594 28.941406 35.648438 30.191406 C 35.625 30.199219 35.605469 30.199219 35.582031 30.199219 Z M 33.953125 25 C 34.671875 26.578125 35.277344 28.136719 35.75 29.644531 C 39.859375 28.472656 42.5 26.660156 42.5 25 C 42.5 23.339844 39.859375 21.527344 35.75 20.355469 C 35.277344 21.863281 34.671875 23.421875 33.953125 25 Z M 14.417969 30.199219 C 14.394531 30.199219 14.375 30.199219 14.351562 30.191406 C 9.816406 28.941406 7 26.953125 7 25 C 7 23.046875 9.816406 21.058594 14.351562 19.808594 C 14.480469 19.773438 14.617188 19.847656 14.65625 19.976562 C 15.144531 21.566406 15.78125 23.222656 16.546875 24.894531 C 16.578125 24.960938 16.578125 25.039062 16.546875 25.105469 C 15.78125 26.78125 15.144531 28.433594 14.65625 30.023438 C 14.625 30.132812 14.523438 30.199219 14.417969 30.199219 Z M 14.25 20.355469 C 10.140625 21.527344 7.5 23.339844 7.5 25 C 7.5 26.660156 10.140625 28.472656 14.25 29.644531 C 14.722656 28.136719 15.328125 26.578125 16.046875 25 C 15.328125 23.421875 14.722656 21.863281 14.25 20.355469 Z M 32.824219 23.476562 C 32.726562 23.476562 32.640625 23.425781 32.597656 23.34375 C 32.222656 22.597656 31.847656 21.90625 31.464844 21.230469 C 31.101562 20.597656 30.699219 19.929688 30.234375 19.199219 C 30.179688 19.117188 30.179688 19.011719 30.234375 18.929688 C 30.285156 18.851562 30.375 18.804688 30.472656 18.816406 C 31.753906 18.96875 33 19.179688 34.175781 19.441406 C 34.242188 19.457031 34.300781 19.5 34.339844 19.5625 C 34.371094 19.621094 34.382812 19.695312 34.359375 19.761719 C 34 20.929688 33.558594 22.128906 33.054688 23.324219 C 33.015625 23.414062 32.929688 23.472656 32.832031 23.476562 C 32.828125 23.476562 32.824219 23.476562 32.824219 23.476562 Z M 31.898438 20.984375 C 32.203125 21.519531 32.5 22.0625 32.796875 22.636719 C 33.175781 21.707031 33.511719 20.78125 33.800781 19.871094 C 32.882812 19.675781 31.921875 19.511719 30.9375 19.378906 C 31.289062 19.945312 31.605469 20.472656 31.898438 20.984375 Z M 17.175781 23.476562 C 17.175781 23.476562 17.171875 23.476562 17.167969 23.476562 C 17.070312 23.476562 16.984375 23.414062 16.945312 23.324219 C 16.441406 22.128906 16 20.929688 15.640625 19.761719 C 15.617188 19.695312 15.628906 19.621094 15.664062 19.5625 C 15.699219 19.5 15.757812 19.457031 15.824219 19.441406 C 17 19.179688 18.246094 18.96875 19.527344 18.816406 C 19.625 18.808594 19.714844 18.851562 19.769531 18.933594 C 19.820312 19.015625 19.820312 19.117188 19.765625 19.199219 C 19.300781 19.929688 18.898438 20.597656 18.535156 21.234375 C 18.152344 21.90625 17.78125 22.597656 17.402344 23.34375 C 17.359375 23.425781 17.273438 23.476562 17.175781 23.476562 Z M 16.199219 19.871094 C 16.488281 20.78125 16.824219 21.707031 17.203125 22.636719 C 17.5 22.0625 17.796875 21.519531 18.101562 20.984375 C 18.394531 20.472656 18.710938 19.945312 19.0625 19.378906 C 18.078125 19.511719 17.117188 19.675781 16.199219 19.871094 Z M 34.53125 18.488281 C 34.511719 18.488281 34.496094 18.484375 34.476562 18.480469 C 32.882812 18.121094 31.15625 17.859375 29.351562 17.695312 C 29.277344 17.6875 29.210938 17.648438 29.167969 17.589844 C 28.101562 16.050781 26.988281 14.640625 25.855469 13.398438 C 25.765625 13.300781 25.769531 13.148438 25.863281 13.054688 C 27.964844 10.949219 29.953125 9.601562 31.621094 9.15625 C 32.554688 8.90625 33.339844 8.960938 33.945312 9.316406 C 35.625 10.296875 35.941406 13.738281 34.773438 18.300781 C 34.746094 18.410156 34.644531 18.488281 34.53125 18.488281 Z M 29.511719 17.207031 C 31.210938 17.363281 32.835938 17.609375 34.347656 17.941406 C 35.375 13.785156 35.121094 10.582031 33.695312 9.746094 C 33.203125 9.460938 32.550781 9.425781 31.75 9.636719 C 30.210938 10.050781 28.359375 11.292969 26.386719 13.238281 C 27.453125 14.425781 28.503906 15.761719 29.511719 17.207031 Z M 15.46875 18.488281 C 15.355469 18.488281 15.253906 18.410156 15.226562 18.300781 C 14.058594 13.738281 14.375 10.296875 16.050781 9.316406 C 16.050781 9.316406 16.050781 9.316406 16.054688 9.316406 C 16.660156 8.960938 17.445312 8.90625 18.378906 9.15625 C 20.046875 9.601562 22.035156 10.949219 24.136719 13.054688 C 24.230469 13.148438 24.234375 13.300781 24.144531 13.398438 C 23.011719 14.640625 21.898438 16.050781 20.832031 17.589844 C 20.789062 17.648438 20.722656 17.6875 20.648438 17.695312 C 18.84375 17.859375 17.117188 18.121094 15.523438 18.480469 C 15.503906 18.484375 15.488281 18.488281 15.46875 18.488281 Z M 16.304688 9.746094 C 14.878906 10.582031 14.625 13.785156 15.652344 17.941406 C 17.164062 17.609375 18.789062 17.363281 20.488281 17.207031 C 21.496094 15.761719 22.546875 14.425781 23.613281 13.238281 C 21.636719 11.292969 19.789062 10.046875 18.25 9.636719 C 17.453125 9.425781 16.796875 9.460938 16.304688 9.746094 Z M 27.433594 17.5625 C 27.429688 17.5625 27.425781 17.5625 27.421875 17.5625 C 25.765625 17.480469 24.234375 17.480469 22.582031 17.5625 C 22.476562 17.5625 22.394531 17.515625 22.347656 17.429688 C 22.300781 17.34375 22.308594 17.242188 22.367188 17.164062 C 23.160156 16.085938 23.984375 15.074219 24.816406 14.152344 C 24.910156 14.050781 25.089844 14.050781 25.1875 14.152344 C 26.015625 15.074219 26.839844 16.085938 27.632812 17.164062 C 27.691406 17.242188 27.699219 17.34375 27.652344 17.429688 C 27.609375 17.511719 27.523438 17.5625 27.433594 17.5625 Z M 25 17 C 25.621094 17 26.261719 17.011719 26.917969 17.039062 C 26.289062 16.210938 25.648438 15.425781 25 14.695312 C 24.351562 15.425781 23.710938 16.210938 23.082031 17.039062 C 23.738281 17.011719 24.378906 17 25 17 Z M 25 17 "/>
</g>
</svg>
