<?xml version="1.0" encoding="UTF-8"?>
<svg xmlns="http://www.w3.org/2000/svg" xmlns:xlink="http://www.w3.org/1999/xlink" width="48pt" height="48pt" viewBox="0 0 48 48" version="1.1">
<g id="surface7722890">
<path style=" stroke:none;fill-rule:nonzero;fill:rgb(100%,34.117647%,20%);fill-opacity:1;" d="M 6 6 L 6 42 L 42 42 L 42 6 Z M 27.332031 24.902344 L 23.097656 24.902344 L 23.097656 38 L 19.683594 38 L 19.683594 24.902344 L 15.535156 24.902344 L 15.535156 22 L 27.332031 22 Z M 27.996094 37.253906 L 27.996094 33.75 C 27.996094 33.75 29.90625 35.191406 32.203125 35.191406 C 34.5 35.191406 34.410156 33.691406 34.410156 33.484375 C 34.410156 31.308594 27.90625 31.308594 27.90625 26.484375 C 27.90625 19.921875 37.382812 22.511719 37.382812 22.511719 L 37.265625 25.628906 C 37.265625 25.628906 35.675781 24.570312 33.878906 24.570312 C 32.085938 24.570312 31.4375 25.425781 31.4375 26.335938 C 31.4375 28.691406 38 28.453125 38 33.191406 C 38 40.488281 27.996094 37.253906 27.996094 37.253906 Z M 27.996094 37.253906 "/>
</g>
</svg>
